<svg xmlns="http://www.w3.org/2000/svg" width="1024" height="1024" viewBox="0 0 1024 1024">
<defs>
  <linearGradient id="bg" x1="0.15" y1="0" x2="0.85" y2="1">
    <stop offset="0" stop-color="#2A44B0"/><stop offset="1" stop-color="#121C66"/>
  </linearGradient>
  <radialGradient id="glow" cx="0.28" cy="0.16" r="0.75">
    <stop offset="0" stop-color="#9DB0FF" stop-opacity="0.26"/><stop offset="1" stop-color="#9DB0FF" stop-opacity="0"/>
  </radialGradient>
  <filter id="sh" x="-30%" y="-30%" width="160%" height="170%">
    <feDropShadow dx="0" dy="22" stdDeviation="26" flood-color="#070C3A" flood-opacity="0.38"/>
  </filter>
  <clipPath id="ct"><rect x="-378" y="-378" width="756" height="364"/></clipPath>
  <clipPath id="cb"><rect x="-378" y="14" width="756" height="364"/></clipPath>
</defs>
<rect width="1024" height="1024" fill="url(#bg)"/>
<rect width="1024" height="1024" fill="url(#glow)"/>
<g transform="translate(512 512)" filter="url(#sh)">
  <g clip-path="url(#ct)"><g transform="translate(-26 0)"><path fill-rule="evenodd" fill="#F9F5EC" d="M-318,0 a318,318 0 1,0 636,0 a318,318 0 1,0 -636,0 ZM-259.17,0 a259.17,259.17 0 1,0 518.34,0 a259.17,259.17 0 1,0 -518.34,0 ZM-234.68,0 a234.68,234.68 0 1,0 469.37,0 a234.68,234.68 0 1,0 -469.37,0 Z"/></g></g>
  <g clip-path="url(#cb)"><g transform="translate(26 0)"><path fill-rule="evenodd" fill="#E1E1EA" d="M-318,0 a318,318 0 1,0 636,0 a318,318 0 1,0 -636,0 ZM-259.17,0 a259.17,259.17 0 1,0 518.34,0 a259.17,259.17 0 1,0 -518.34,0 ZM-234.68,0 a234.68,234.68 0 1,0 469.37,0 a234.68,234.68 0 1,0 -469.37,0 Z"/></g></g>
</g>
</svg>
